<svg width="16" height="18" viewBox="0 0 16 18" fill="none" xmlns="http://www.w3.org/2000/svg">
<path d="M3.5577 17.3684C3.05898 17.3684 2.63302 17.1918 2.27982 16.8386C1.92661 16.4854 1.75 16.0595 1.75 15.5607V2.86846H0.75V1.36849H5.24997V0.483887H11.25V1.36849H15.75V2.86846H14.75V15.5607C14.75 16.0659 14.575 16.4934 14.225 16.8434C13.875 17.1934 13.4474 17.3684 12.9422 17.3684H3.5577ZM13.25 2.86846H3.24997V15.5607C3.24997 15.6505 3.27883 15.7242 3.33652 15.7819C3.39422 15.8396 3.46795 15.8685 3.5577 15.8685H12.9422C13.0192 15.8685 13.0897 15.8364 13.1538 15.7723C13.2179 15.7082 13.25 15.6377 13.25 15.5607V2.86846ZM5.65385 13.8685H7.15382V4.86846H5.65385V13.8685ZM9.34613 13.8685H10.8461V4.86846H9.34613V13.8685Z" fill="#777679"/>
</svg>
